<svg version="1.1" id="Layer_1" xmlns="http://www.w3.org/2000/svg" xmlns:xlink="http://www.w3.org/1999/xlink" x="0px" y="0px"
	 width="100%" viewBox="30 215 460 80" enable-background="new 30 215 460 80" xml:space="preserve">

M62.826202,279.649567
	C63.557461,276.841797 64.204330,274.007538 65.072037,271.242584
	C65.328346,270.425873 66.190125,269.206726 66.805069,269.188202
	C71.956230,269.032990 77.304634,268.336273 82.172974,269.525146
	C84.006805,269.972961 84.756340,274.944916 85.947624,277.875793
	C86.216469,278.537201 86.266129,279.287720 86.417267,279.999969
	C95.818031,279.999969 104.814850,280.124817 113.801476,279.878204
	C115.314636,279.836639 117.350365,278.548157 118.183167,277.228912
	C124.563797,267.121307 130.706436,256.863464 137.071320,246.408722
	C137.071320,257.558533 137.071320,268.604797 137.071320,279.780457
	C142.173340,279.780457 146.910828,279.780457 152.101227,279.780457
	C152.101227,265.216583 152.101227,250.864868 152.101227,236.513138
	C152.409973,236.513977 152.718719,236.514816 153.027466,236.515656
	C153.027466,250.916016 153.027466,265.316376 153.027466,279.747925
	C158.241074,279.747925 162.979279,279.747925 168.107819,279.747925
	C168.107819,265.093597 168.107819,250.686081 168.107819,235.889923
	C173.910278,235.889923 179.326645,235.889923 184.743073,235.889923
	C184.743073,231.747696 184.743073,228.008652 184.743073,224.000000
	C170.687500,224.000000 156.870102,224.403137 143.094833,223.816681
	C136.928909,223.554184 134.028275,226.090591 131.369324,231.006958
	C126.180786,240.600479 120.478287,249.916031 115.501038,258.466400
	C115.501038,247.662933 115.501038,235.867432 115.501038,224.364136
	C110.196327,224.364136 105.116829,224.364136 99.893860,224.364136
	C99.893860,238.986725 99.893860,253.245605 99.893860,268.871674
	C94.541779,253.127380 89.623894,238.660370 84.640404,224.000366
	C78.579361,224.000366 72.585587,223.839096 66.613983,224.131241
	C65.362053,224.192474 63.556824,225.685501 63.092609,226.925369
	C60.958496,232.625412 59.202248,238.467255 57.323578,244.262497
	C53.504814,256.042389 49.694527,267.825043 45.760933,279.976685
	C51.673569,279.976685 56.830170,279.976685 62.826202,279.649567
M235.986374,276.836761
	C232.681381,271.028503 229.376404,265.220245 226.026840,259.333679
	C226.794205,258.775848 227.303696,258.376312 227.841293,258.019073
	C235.152603,253.160904 236.665405,246.206696 234.992477,238.133224
	C233.605743,231.440903 229.202438,226.281723 223.039688,225.342117
	C212.577560,223.746994 201.825317,224.054688 191.000000,223.553650
	C191.000000,233.766098 191.000000,242.907242 191.000000,252.048386
	C191.000000,261.302094 191.000000,270.555786 191.000000,279.707489
	C196.328583,279.707489 201.064484,279.707489 206.139664,279.707489
	C206.139664,273.650543 206.139664,267.882172 206.139664,262.444366
	C210.533447,260.722870 212.277557,263.087830 213.818512,266.306122
	C215.688812,270.212189 217.817810,274.002899 220.012695,277.739075
	C220.573364,278.693451 221.771469,279.838654 222.734039,279.893707
	C226.882294,280.130981 231.053894,280.049316 235.209869,279.893585
	C235.542786,279.881134 235.821518,278.422363 235.986374,276.836761
M279.086639,225.019730
	C278.588684,224.992615 278.053406,225.076004 277.598297,224.922180
	C267.148743,221.390289 257.666595,222.751053 249.242615,230.230957
	C241.787155,236.850906 240.647232,245.449341 240.959503,254.710709
	C241.327011,265.610107 246.082474,273.867767 255.954407,278.314270
	C267.193909,283.376740 278.457367,280.852722 286.639008,273.897278
	C298.483124,263.828217 299.653473,234.729645 279.086639,225.019730
M422.037354,255.320892
	C418.601776,244.873199 415.166199,234.425507 411.737915,224.000000
	C409.614868,224.000000 407.953766,223.956085 406.295685,224.008163
	C401.185242,224.168625 394.864899,222.612579 391.320251,225.061157
	C388.033661,227.331497 387.631195,233.869308 386.102600,238.574722
	C381.663025,252.240555 377.295654,265.929840 372.825958,279.840179
	C378.800964,279.840179 384.267944,279.840179 388.889832,279.840179
	C392.679657,276.655334 389.066254,269.702332 395.703552,269.097046
	C400.311188,268.676880 405.577209,267.917542 409.445892,269.701752
	C411.884644,270.826508 412.288239,276.364136 413.510254,279.666809
	C419.126160,279.666809 424.511047,279.666809 430.364563,279.666809
	C427.645844,271.485382 425.072906,263.742706 422.037354,255.320892
M333.992737,225.015915
	C323.374847,224.537903 312.756927,224.059891 302.306763,223.589447
	C302.306763,243.062317 302.306763,261.445404 302.306763,279.698212
	C307.353882,279.698212 312.087158,279.698212 317.199524,279.698212
	C317.199524,273.995117 317.199524,268.589630 317.199524,262.999969
	C321.394409,262.999969 325.204773,263.103546 329.007690,262.979614
	C338.626587,262.666138 347.872620,252.829575 346.937134,243.571365
	C346.117462,235.459625 342.683990,228.800293 333.992737,225.015915
M368.000000,232.541809
	C368.000000,229.768814 368.000000,226.995804 368.000000,224.275848
	C362.709686,224.275848 357.970520,224.275848 353.274292,224.275848
	C353.274292,242.955505 353.274292,261.357941 353.274292,279.722778
	C358.293182,279.722778 363.032379,279.722778 368.000000,279.722778
	C368.000000,264.142334 368.000000,248.837997 368.000000,232.541809
z"/>
<path fill="#000000" opacity="1.000000" stroke="none"
	d="
M62.406487,279.813110
	C56.830170,279.976685 51.673569,279.976685 45.760933,279.976685
	C49.694527,267.825043 53.504814,256.042389 57.323578,244.262497
	C59.202248,238.467255 60.958496,232.625412 63.092609,226.925369
	C63.556824,225.685501 65.362053,224.192474 66.613983,224.131241
	C72.585587,223.839096 78.579361,224.000366 84.640404,224.000366
	C89.623894,238.660370 94.541779,253.127380 99.893860,268.871674
	C99.893860,253.245605 99.893860,238.986725 99.893860,224.364136
	C105.116829,224.364136 110.196327,224.364136 115.501038,224.364136
	C115.501038,235.867432 115.501038,247.662933 115.501038,258.466400
	C120.478287,249.916031 126.180786,240.600479 131.369324,231.006958
	C134.028275,226.090591 136.928909,223.554184 143.094833,223.816681
	C156.870102,224.403137 170.687500,224.000000 184.743073,224.000000
	C184.743073,228.008652 184.743073,231.747696 184.743073,235.889923
	C179.326645,235.889923 173.910278,235.889923 168.107819,235.889923
	C168.107819,250.686081 168.107819,265.093597 168.107819,279.747925
	C162.979279,279.747925 158.241074,279.747925 153.027466,279.747925
	C153.027466,265.316376 153.027466,250.916016 153.027466,236.515656
	C152.718719,236.514816 152.409973,236.513977 152.101227,236.513138
	C152.101227,250.864868 152.101227,265.216583 152.101227,279.780457
	C146.910828,279.780457 142.173340,279.780457 137.071320,279.780457
	C137.071320,268.604797 137.071320,257.558533 137.071320,246.408722
	C130.706436,256.863464 124.563797,267.121307 118.183167,277.228912
	C117.350365,278.548157 115.314636,279.836639 113.801476,279.878204
	C104.814850,280.124817 95.818031,279.999969 86.417267,279.999969
	C86.266129,279.287720 86.216469,278.537201 85.947624,277.875793
	C84.756340,274.944916 84.006805,269.972961 82.172974,269.525146
	C77.304634,268.336273 71.956230,269.032990 66.805069,269.188202
	C66.190125,269.206726 65.328346,270.425873 65.072037,271.242584
	C64.204330,274.007538 63.557461,276.841797 62.406487,279.813110
M77.997162,251.511627
	C76.832474,247.117767 75.667793,242.723892 74.156395,237.022049
	C72.283760,244.679352 70.704002,251.139053 69.073166,257.807617
	C72.623901,257.807617 76.078781,257.807617 79.656654,257.807617
	C79.103386,255.983368 78.552628,254.167404 77.997162,251.511627
z"/>
<path fill="#000000" opacity="1.000000" stroke="none"
	d="
M236.055893,277.236237
	C235.821518,278.422363 235.542786,279.881134 235.209869,279.893585
	C231.053894,280.049316 226.882294,280.130981 222.734039,279.893707
	C221.771469,279.838654 220.573364,278.693451 220.012695,277.739075
	C217.817810,274.002899 215.688812,270.212189 213.818512,266.306122
	C212.277557,263.087830 210.533447,260.722870 206.139664,262.444366
	C206.139664,267.882172 206.139664,273.650543 206.139664,279.707489
	C201.064484,279.707489 196.328583,279.707489 191.000000,279.707489
	C191.000000,270.555786 191.000000,261.302094 191.000000,252.048386
	C191.000000,242.907242 191.000000,233.766098 191.000000,223.553650
	C201.825317,224.054688 212.577560,223.746994 223.039688,225.342117
	C229.202438,226.281723 233.605743,231.440903 234.992477,238.133224
	C236.665405,246.206696 235.152603,253.160904 227.841293,258.019073
	C227.303696,258.376312 226.794205,258.775848 226.026840,259.333679
	C229.376404,265.220245 232.681381,271.028503 236.055893,277.236237
M206.000000,243.482971
	C206.000000,245.582397 206.000000,247.681824 206.000000,249.957443
	C211.104767,249.890137 216.277985,251.086945 218.853806,245.828430
	C219.714874,244.070526 219.560135,240.904312 218.495148,239.287079
	C215.483170,234.713257 210.656570,235.949463 206.000000,236.259491
	C206.000000,238.581787 206.000000,240.549210 206.000000,243.482971
z"/>
<path fill="#000000" opacity="1.000000" stroke="none"
	d="
M279.461578,225.162964
	C299.653473,234.729645 298.483124,263.828217 286.639008,273.897278
	C278.457367,280.852722 267.193909,283.376740 255.954407,278.314270
	C246.082474,273.867767 241.327011,265.610107 240.959503,254.710709
	C240.647232,245.449341 241.787155,236.850906 249.242615,230.230957
	C257.666595,222.751053 267.148743,221.390289 277.598297,224.922180
	C278.053406,225.076004 278.588684,224.992615 279.461578,225.162964
M257.000824,245.802185
	C257.000763,249.927567 256.529877,254.120956 257.113739,258.161987
	C257.938873,263.872650 262.912506,267.949677 267.997284,267.953766
	C273.083649,267.957855 278.187927,263.922729 278.753937,258.143066
	C279.241058,253.168869 278.990570,247.866501 277.695496,243.080109
	C277.033569,240.633698 273.648590,237.908981 270.998230,237.220749
	C264.931366,235.645355 260.125244,236.567749 257.000824,245.802185
z"/>
<path fill="#000000" opacity="1.000000" stroke="none"
	d="
M422.268677,255.660446
	C425.072906,263.742706 427.645844,271.485382 430.364563,279.666809
	C424.511047,279.666809 419.126160,279.666809 413.510254,279.666809
	C412.288239,276.364136 411.884644,270.826508 409.445892,269.701752
	C405.577209,267.917542 400.311188,268.676880 395.703552,269.097046
	C389.066254,269.702332 392.679657,276.655334 388.889832,279.840179
	C384.267944,279.840179 378.800964,279.840179 372.825958,279.840179
	C377.295654,265.929840 381.663025,252.240555 386.102600,238.574722
	C387.631195,233.869308 388.033661,227.331497 391.320251,225.061157
	C394.864899,222.612579 401.185242,224.168625 406.295685,224.008163
	C407.953766,223.956085 409.614868,224.000000 411.737915,224.000000
	C415.166199,234.425507 418.601776,244.873199 422.268677,255.660446
M397.036285,252.716766
	C396.765289,254.388397 396.494263,256.060028 396.211365,257.805054
	C399.819672,257.805054 403.202423,257.805054 406.543060,257.805054
	C404.841919,251.191925 403.185455,244.752441 401.169891,236.916916
	C399.743561,242.786728 398.624603,247.391708 397.036285,252.716766
z"/>
<path fill="#000000" opacity="1.000000" stroke="none"
	d="
M334.386292,225.134048
	C342.683990,228.800293 346.117462,235.459625 346.937134,243.571365
	C347.872620,252.829575 338.626587,262.666138 329.007690,262.979614
	C325.204773,263.103546 321.394409,262.999969 317.199524,262.999969
	C317.199524,268.589630 317.199524,273.995117 317.199524,279.698212
	C312.087158,279.698212 307.353882,279.698212 302.306763,279.698212
	C302.306763,261.445404 302.306763,243.062317 302.306763,223.589447
	C312.756927,224.059891 323.374847,224.537903 334.386292,225.134048
M323.960907,236.017776
	C321.713562,236.017776 319.466217,236.017776 317.223206,236.017776
	C317.223206,241.615540 317.223206,246.678619 317.223206,251.721176
	C324.783417,252.291748 329.796326,249.869995 330.938843,245.219772
	C331.746033,241.934525 328.893219,237.779846 323.960907,236.017776
z"/>
<path fill="#000000" opacity="1.000000" stroke="none"
	d="
M368.000000,233.037735
	C368.000000,248.837997 368.000000,264.142334 368.000000,279.722778
	C363.032379,279.722778 358.293182,279.722778 353.274292,279.722778
	C353.274292,261.357941 353.274292,242.955505 353.274292,224.275848
	C357.970520,224.275848 362.709686,224.275848 368.000000,224.275848
	C368.000000,226.995804 368.000000,229.768814 368.000000,233.037735
z"/>
<path fill="#FFFFFF" opacity="1.000000" stroke="none"
	d="
M77.999519,251.931534
	C78.552628,254.167404 79.103386,255.983368 79.656654,257.807617
	C76.078781,257.807617 72.623901,257.807617 69.073166,257.807617
	C70.704002,251.139053 72.283760,244.679352 74.156395,237.022049
	C75.667793,242.723892 76.832474,247.117767 77.999519,251.931534
z"/>
<path fill="#FFFFFF" opacity="1.000000" stroke="none"
	d="
M206.000000,242.999802
	C206.000000,240.549210 206.000000,238.581787 206.000000,236.259491
	C210.656570,235.949463 215.483170,234.713257 218.495148,239.287079
	C219.560135,240.904312 219.714874,244.070526 218.853806,245.828430
	C216.277985,251.086945 211.104767,249.890137 206.000000,249.957443
	C206.000000,247.681824 206.000000,245.582397 206.000000,242.999802
z"/>
<path fill="#FFFFFF" opacity="1.000000" stroke="none"
	d="
M257.009735,245.384491
	C260.125244,236.567749 264.931366,235.645355 270.998230,237.220749
	C273.648590,237.908981 277.033569,240.633698 277.695496,243.080109
	C278.990570,247.866501 279.241058,253.168869 278.753937,258.143066
	C278.187927,263.922729 273.083649,267.957855 267.997284,267.953766
	C262.912506,267.949677 257.938873,263.872650 257.113739,258.161987
	C256.529877,254.120956 257.000763,249.927567 257.009735,245.384491
z"/>
<path fill="#FFFFFF" opacity="1.000000" stroke="none"
	d="
M397.270966,252.356720
	C398.624603,247.391708 399.743561,242.786728 401.169891,236.916916
	C403.185455,244.752441 404.841919,251.191925 406.543060,257.805054
	C403.202423,257.805054 399.819672,257.805054 396.211365,257.805054
	C396.494263,256.060028 396.765289,254.388397 397.270966,252.356720
z"/>
<path fill="#FFFFFF" opacity="1.000000" stroke="none"
	d="
M324.374084,236.139374
	C328.893219,237.779846 331.746033,241.934525 330.938843,245.219772
	C329.796326,249.869995 324.783417,252.291748 317.223206,251.721176
	C317.223206,246.678619 317.223206,241.615540 317.223206,236.017776
	C319.466217,236.017776 321.713562,236.017776 324.374084,236.139374
z"/>
</svg>